<?xml version="1.0" encoding="UTF-8"?><svg id="a" xmlns="http://www.w3.org/2000/svg" xmlns:xlink="http://www.w3.org/1999/xlink" viewBox="0 0 1120.21 333.51"><defs><style>.h{fill:#5d51e6;}.i{fill:#4033a6;}.j{fill:#3b2f99;}.k{fill:#e6e6e6;}.l{fill:url(#d);}.m{fill:#b7b6bf;}.n{fill:#4e41d9;}</style><linearGradient id="d" x1="230.42" y1="299.79" x2="76.81" y2="33.72" gradientTransform="matrix(1, 0, 0, 1, 0, 0)" gradientUnits="userSpaceOnUse"><stop offset=".01" stop-color="#3b2f99"/><stop offset=".29" stop-color="#4d3dcc"/><stop offset=".31" stop-color="#4c47cd"/><stop offset=".39" stop-color="#4b74d3"/><stop offset=".48" stop-color="#4a9bd8"/><stop offset=".57" stop-color="#4abadc"/><stop offset=".67" stop-color="#49d3df"/><stop offset=".77" stop-color="#49e4e2"/><stop offset=".87" stop-color="#49eee3"/><stop offset="1" stop-color="#49f2e4"/></linearGradient></defs><g id="b"><path class="n" d="M268.66,62.1L186.73,14.79c-10.05-5.8-21.5-8.87-33.11-8.87s-23.06,3.07-33.12,8.87L38.57,62.09C18.14,73.89,5.45,95.86,5.45,119.45v94.61c0,23.59,12.69,45.56,33.11,57.36l81.94,47.31c10.05,5.8,21.5,8.87,33.11,8.87s23.06-3.07,33.11-8.87l81.93-47.3c20.43-11.79,33.12-33.77,33.12-57.36V119.45c0-23.59-12.69-45.56-33.12-57.35Z"/><path class="h" d="M258.58,109.91c-4.13,0-8,1.1-11.36,3.01-.07,.04-75.61,43.62-75.61,43.62-11.13,6.43-24.85,6.43-35.98,0,0,0-76.85-44.28-77.09-44.38-3-1.43-6.35-2.26-9.89-2.26-12.73,0-23.04,10.32-23.04,23.04v83.02c0,15.38,8.21,29.6,21.53,37.29l84.95,49.04c6.54,3.78,13.99,5.77,21.53,5.77,7.55,0,14.99-2,21.53-5.77l84.95-49.04c13.32-7.69,21.53-21.91,21.53-37.29v-83.02c0-12.73-10.32-23.04-23.04-23.04Z"/><path class="i" d="M260.06,228.21c9.57,5.52,21.53-1.36,21.56-12.41h0V117.71c0-15.38-8.21-29.6-21.53-37.29L175.15,31.37c-6.54-3.78-13.99-5.77-21.53-5.77s-14.99,2-21.53,5.77L47.13,80.42c-13.32,7.69-21.53,21.91-21.53,37.29v98.09h0c.03,11.05,11.99,17.93,21.56,12.41l88.45-51.07c11.13-6.43,24.85-6.43,35.98,0l88.47,51.07Z"/><circle id="c" class="k" cx="153.61" cy="166.39" r="56.33"/><path class="l" d="M272.9,58.25L187.95,9.2C177.52,3.18,165.65,0,153.61,0s-23.91,3.18-34.33,9.2L34.33,58.24C13.15,70.47,0,93.26,0,117.71v98.09c0,24.45,13.15,47.24,34.33,59.47l84.95,49.05c10.42,6.02,22.29,9.2,34.33,9.2s23.91-3.18,34.33-9.2l84.95-49.04c21.18-12.23,34.33-35.01,34.33-59.47V117.71c0-24.45-13.16-47.24-34.33-59.46Zm8.73,157.56c0,15.38-8.21,29.6-21.53,37.29l-84.95,49.04c-6.54,3.78-13.99,5.77-21.53,5.77s-14.99-2-21.53-5.77l-84.95-49.04c-13.32-7.69-21.53-21.91-21.53-37.29v-83.02c0-12.73,10.32-23.04,23.04-23.04,3.55,0,6.89,.82,9.89,2.26,.24,.1,77.09,44.38,77.09,44.38,11.13,6.43,24.85,6.43,35.98,0,0,0,75.54-43.58,75.61-43.62,3.35-1.91,7.22-3.01,11.36-3.01,12.73,0,23.04,10.32,23.04,23.04v83.02Z"/></g><g id="e"><g id="f"><path class="j" d="M510.52,118.26h-5.98c-3.97,0-7.27,3.02-7.65,6.93-7.95-5.55-17.67-8.56-28.31-8.56-27.83,0-48.81,21.25-48.81,49.43s20.98,49.43,48.81,49.43c10.55,0,20.2-2.96,28.12-8.44,.43,3.86,3.7,6.82,7.64,6.82h6.18c4.24,0,7.69-3.44,7.69-7.69V125.95c0-4.25-3.44-7.69-7.69-7.69Zm-41.46,74.78h0c-15.35,0-26.5-11.34-26.5-26.98s11.39-26.98,26.5-26.98,26.35,11.1,26.35,26.98-10.84,26.98-26.35,26.98Z"/><path class="j" d="M580.17,116.64h0c-10.62,0-20.58,3.24-28.69,9.06l-.04-.44c-.35-3.97-3.68-7.01-7.66-7.01h-5.29c-4.24,0-7.69,3.44-7.69,7.69v108.67c0,4.25,3.44,7.69,7.69,7.69h7.28c4.24,0,7.69-3.44,7.69-7.69v-26.87c7.74,4.99,16.97,7.75,26.71,7.75,27.7,0,48.59-21.25,48.59-49.43s-20.89-49.43-48.59-49.43Zm-.48,22.45c15.52,0,26.35,11.1,26.35,26.98s-10.84,26.98-26.35,26.98-26.5-11.6-26.5-26.98,11.15-26.98,26.5-26.98Z"/><rect class="j" x="638.4" y="118.26" width="22.65" height="95.61" rx="7.69" ry="7.69"/><path class="j" d="M894.17,118.26h-5.97c-3.97,0-7.27,3.02-7.65,6.93-7.95-5.55-17.67-8.56-28.31-8.56-27.83,0-48.81,21.25-48.81,49.43s20.98,49.43,48.81,49.43c10.55,0,20.2-2.96,28.12-8.44,.43,3.86,3.7,6.82,7.64,6.82h6.18c4.24,0,7.69-3.44,7.69-7.69V125.95c0-4.25-3.44-7.69-7.69-7.69Zm-41.45,74.78h0c-15.36,0-26.5-11.34-26.5-26.98s11.39-26.98,26.5-26.98,26.35,11.1,26.35,26.98-10.84,26.98-26.35,26.98Z"/><path class="j" d="M963.82,116.64h0c-10.62,0-20.58,3.24-28.69,9.06l-.04-.44c-.35-3.97-3.68-7.01-7.66-7.01h-5.29c-4.24,0-7.69,3.44-7.69,7.69v108.67c0,4.25,3.44,7.69,7.69,7.69h7.28c4.24,0,7.69-3.44,7.69-7.69v-26.87c7.74,4.99,16.97,7.75,26.71,7.75,27.7,0,48.59-21.25,48.59-49.43s-20.89-49.43-48.59-49.43Zm-.48,22.45c15.52,0,26.35,11.1,26.35,26.98s-10.84,26.98-26.35,26.98-26.5-11.6-26.5-26.98,11.15-26.98,26.5-26.98Z"/><path class="j" d="M1071.62,116.64h0c-10.62,0-20.58,3.24-28.69,9.06l-.04-.44c-.35-3.97-3.68-7.01-7.66-7.01h-5.29c-4.25,0-7.69,3.44-7.69,7.69v108.67c0,4.25,3.44,7.69,7.69,7.69h7.28c4.25,0,7.69-3.44,7.69-7.69v-26.87c7.74,4.99,16.97,7.75,26.71,7.75,27.7,0,48.59-21.25,48.59-49.43s-20.89-49.43-48.59-49.43Zm-.48,22.45c15.52,0,26.35,11.1,26.35,26.98s-10.84,26.98-26.35,26.98-26.5-11.6-26.5-26.98,11.15-26.98,26.5-26.98Z"/><path class="j" d="M661.05,96.77v-5.08c0-2.48-1.32-4.76-3.46-6l-4.4-2.54c-2.14-1.24-4.79-1.24-6.93,0l-4.4,2.54c-2.14,1.24-3.46,3.53-3.46,6v5.08c0,2.48,1.32,4.76,3.46,6l4.4,2.54c2.14,1.24,4.79,1.24,6.93,0l4.4-2.54c2.14-1.24,3.46-3.53,3.46-6Z"/><path class="j" d="M768.96,191.7h-33.18c29.6-31.18,36.02-42.56,36.02-58.96,0-20.09-15.15-34.67-36.01-34.67s-36.68,14.61-36.68,34.74v2.62c0,4.25,3.44,7.69,7.69,7.69h7.07c4.24,0,7.69-3.44,7.69-7.69v-2.62c0-7.64,5.59-12.57,14.24-12.57s13.5,4.67,13.5,12.5c0,10.6-3.92,17.98-50.5,64.99-1.43,1.44-2.23,3.38-2.23,5.41v3.04c0,4.25,3.44,7.69,7.69,7.69h64.72c4.24,0,7.69-3.44,7.69-7.69v-6.8c0-4.25-3.44-7.69-7.69-7.69Z"/></g><g id="g"><path class="m" d="M538.69,284.24h-1.58c-.54,0-1.02,.34-1.21,.85-1.15,3.2-3.83,5.04-7.36,5.04-4.78,0-8.12-3.39-8.12-8.26s3.34-8.29,8.12-8.29c3.42,0,6.05,1.72,7.21,4.71,.19,.49,.67,.82,1.19,.82h1.59c.41,0,.79-.2,1.04-.53,.24-.33,.31-.76,.18-1.15-1.58-4.9-5.88-7.94-11.22-7.94-7.11,0-12.26,5.2-12.26,12.37s5.16,12.34,12.26,12.34c5.47,0,9.82-3.19,11.37-8.32,.12-.39,.04-.81-.2-1.13-.24-.33-.62-.52-1.03-.52Z"/><path class="m" d="M557.35,284.23c2.85-1.14,4.66-3.73,4.66-6.88,0-4.37-3.35-7.54-7.97-7.54h-7.92c-.71,0-1.28,.57-1.28,1.28v21.51c0,.71,.57,1.28,1.28,1.28h1.55c.71,0,1.28-.57,1.28-1.28v-7.76h4.04l5,8.41c.23,.39,.65,.63,1.1,.63h1.75c.46,0,.89-.25,1.11-.65s.22-.89-.01-1.29l-4.6-7.72Zm-8.4-10.37h5.02c2.3,0,3.9,1.43,3.9,3.48s-1.57,3.47-3.9,3.47h-5.02v-6.95Z"/><path class="m" d="M580.85,289.84h-9.27v-6.4h8.14c.71,0,1.28-.57,1.28-1.28v-1.45c0-.71-.57-1.28-1.28-1.28h-8.14v-5.56h8.94c.71,0,1.28-.57,1.28-1.28v-1.48c0-.71-.57-1.28-1.28-1.28h-11.76c-.71,0-1.28,.57-1.28,1.28v21.51c0,.71,.57,1.28,1.28,1.28h12.1c.71,0,1.28-.57,1.28-1.28v-1.49c0-.71-.57-1.28-1.28-1.28Z"/><path class="m" d="M597.67,270.59c-.2-.47-.66-.77-1.18-.77h-1.4c-.52,0-.98,.31-1.18,.79l-9.02,21.51c-.17,.4-.12,.85,.11,1.21,.24,.36,.64,.57,1.07,.57h1.65c.52,0,.98-.31,1.18-.78l2.15-5.1h9.66l2.19,5.11c.2,.47,.66,.78,1.18,.78h1.68c.43,0,.83-.22,1.07-.58,.24-.36,.28-.81,.11-1.21l-9.27-21.51Zm-4.95,13.42l3.11-7.45,3.19,7.45h-6.3Z"/><path class="m" d="M623.46,269.82h-15.27c-.71,0-1.28,.57-1.28,1.28v1.46c0,.71,.57,1.28,1.28,1.28h5.58v18.76c0,.71,.57,1.28,1.28,1.28h1.55c.71,0,1.28-.57,1.28-1.28v-18.76h5.58c.71,0,1.28-.57,1.28-1.28v-1.46c0-.71-.57-1.28-1.28-1.28Z"/><rect class="m" x="629.1" y="269.82" width="4.11" height="24.07" rx="1.28" ry="1.28"/><path class="m" d="M657.95,269.82h-1.52c-.71,0-1.28,.57-1.28,1.28v14.76l-11.32-15.51c-.24-.33-.63-.53-1.03-.53h-1.4c-.71,0-1.28,.57-1.28,1.28v21.51c0,.71,.57,1.28,1.28,1.28h1.52c.71,0,1.28-.57,1.28-1.28v-14.85l11.4,15.61c.24,.33,.63,.53,1.03,.53h1.32c.71,0,1.28-.57,1.28-1.28v-21.51c0-.71-.57-1.28-1.28-1.28Z"/><path class="m" d="M687.26,281.05h-11.57c-.71,0-1.28,.57-1.28,1.28v1.48c0,.71,.57,1.28,1.28,1.28h8.32c-1,3.09-3.75,5.02-7.37,5.02-4.74,0-7.93-3.31-7.93-8.24s3.34-8.26,7.93-8.26c3.6,0,6.65,2.13,7.43,5.17,.15,.57,.66,.96,1.24,.96h1.59c.39,0,.75-.18,.99-.47,.24-.3,.34-.69,.26-1.07-1.05-5.02-5.91-8.67-11.55-8.67-6.86,0-12.04,5.3-12.04,12.34s5.08,12.32,12.07,12.32,11.69-4.86,11.9-11.82c.01-.35-.12-.68-.36-.93-.24-.25-.57-.39-.92-.39Z"/><path class="m" d="M726.43,281.05h-11.57c-.71,0-1.28,.57-1.28,1.28v1.48c0,.71,.57,1.28,1.28,1.28h8.32c-1,3.09-3.75,5.02-7.37,5.02-4.74,0-7.93-3.31-7.93-8.24s3.34-8.26,7.93-8.26c3.6,0,6.65,2.13,7.43,5.17,.15,.57,.66,.96,1.24,.96h1.59c.39,0,.75-.18,.99-.47,.24-.3,.34-.69,.26-1.07-1.05-5.02-5.91-8.67-11.55-8.67-6.86,0-12.04,5.3-12.04,12.34s5.08,12.32,12.07,12.32,11.69-4.86,11.9-11.82c.01-.35-.12-.68-.36-.93-.24-.25-.57-.39-.92-.39Z"/><path class="m" d="M750.27,269.82h-1.56c-.71,0-1.28,.57-1.28,1.28v13.45c0,3.32-2.14,5.56-5.32,5.56s-5.34-2.23-5.34-5.56v-13.45c0-.71-.57-1.28-1.28-1.28h-1.56c-.71,0-1.28,.57-1.28,1.28v13.55c0,5.53,3.98,9.54,9.46,9.54s9.45-4.01,9.45-9.54v-13.55c0-.71-.57-1.28-1.28-1.28Z"/><rect class="m" x="758.15" y="269.82" width="4.11" height="24.07" rx="1.28" ry="1.28"/><path class="m" d="M793.63,269.82h-11.66c-.71,0-1.28,.57-1.28,1.28v21.51c0,.71,.57,1.28,1.28,1.28h1.55c.71,0,1.28-.57,1.28-1.28v-8.75h8.03c.71,0,1.28-.57,1.28-1.28v-1.45c0-.71-.57-1.28-1.28-1.28h-8.03v-5.99h8.83c.71,0,1.28-.57,1.28-1.28v-1.48c0-.71-.57-1.28-1.28-1.28Z"/><path class="m" d="M810.24,269.48c-7.09,0-12.43,5.32-12.43,12.39s5.34,12.35,12.43,12.35,12.42-5.31,12.42-12.35-5.34-12.39-12.42-12.39Zm0,20.66c-4.8,0-8.29-3.48-8.29-8.27s3.49-8.3,8.29-8.3,8.29,3.49,8.29,8.3-3.49,8.27-8.29,8.27Z"/><path class="m" d="M840.51,284.23c2.85-1.14,4.66-3.73,4.66-6.88,0-4.37-3.35-7.54-7.97-7.54h-7.92c-.71,0-1.28,.57-1.28,1.28v21.51c0,.71,.57,1.28,1.28,1.28h1.55c.71,0,1.28-.57,1.28-1.28v-7.76h4.05l5,8.41c.23,.39,.65,.63,1.1,.63h1.75c.46,0,.89-.25,1.11-.65s.22-.89-.01-1.29l-4.6-7.72Zm-8.4-10.37h5.02c2.3,0,3.9,1.43,3.9,3.48s-1.57,3.47-3.9,3.47h-5.02v-6.95Z"/><path class="m" d="M878.24,269.82h-1.71c-.44,0-.85,.23-1.08,.6l-6.16,9.79-6.12-9.78c-.23-.38-.64-.6-1.09-.6h-1.71c-.47,0-.89,.25-1.12,.66-.23,.41-.21,.9,.03,1.3l7.91,12.69v8.14c0,.71,.57,1.28,1.28,1.28h1.59c.71,0,1.28-.57,1.28-1.28v-8.15l7.98-12.68c.25-.4,.26-.89,.04-1.3-.23-.41-.66-.66-1.12-.66Z"/><path class="m" d="M893.62,269.48c-7.09,0-12.43,5.32-12.43,12.39s5.34,12.35,12.43,12.35,12.42-5.31,12.42-12.35-5.34-12.39-12.42-12.39Zm0,20.66c-4.8,0-8.29-3.48-8.29-8.27s3.49-8.3,8.29-8.3,8.29,3.49,8.29,8.3-3.49,8.27-8.29,8.27Z"/><path class="m" d="M928.72,269.82h-1.56c-.71,0-1.28,.57-1.28,1.28v13.45c0,3.32-2.14,5.56-5.32,5.56s-5.34-2.23-5.34-5.56v-13.45c0-.71-.57-1.28-1.28-1.28h-1.56c-.71,0-1.28,.57-1.28,1.28v13.55c0,5.53,3.98,9.54,9.46,9.54s9.45-4.01,9.45-9.54v-13.55c0-.71-.57-1.28-1.28-1.28Z"/><path class="m" d="M949.12,284.23c2.85-1.14,4.66-3.73,4.66-6.88,0-4.37-3.35-7.54-7.97-7.54h-7.92c-.71,0-1.28,.57-1.28,1.28v21.51c0,.71,.57,1.28,1.28,1.28h1.55c.71,0,1.28-.57,1.28-1.28v-7.76h4.05l5,8.41c.23,.39,.65,.63,1.1,.63h1.75c.46,0,.89-.25,1.11-.65s.22-.89-.01-1.29l-4.6-7.72Zm-8.4-10.37h5.02c2.3,0,3.9,1.43,3.9,3.48s-1.57,3.47-3.9,3.47h-5.02v-6.95Z"/><path class="m" d="M980.22,270.59c-.2-.47-.67-.77-1.18-.77h-1.4c-.52,0-.98,.31-1.18,.79l-9.02,21.51c-.17,.4-.12,.85,.12,1.21,.24,.36,.64,.57,1.07,.57h1.65c.52,0,.98-.31,1.18-.78l2.15-5.1h9.66l2.18,5.11c.2,.47,.67,.78,1.18,.78h1.68c.43,0,.83-.22,1.07-.58,.24-.36,.28-.81,.11-1.21l-9.27-21.51Zm-4.95,13.42l3.11-7.45,3.19,7.45h-6.3Z"/><path class="m" d="M1002.68,269.82h-7.39c-.71,0-1.28,.57-1.28,1.28v21.51c0,.71,.57,1.28,1.28,1.28h1.55c.71,0,1.28-.57,1.28-1.28v-7.02h4.56c4.65,0,8.16-3.39,8.16-7.9s-3.51-7.88-8.16-7.88Zm-4.56,4.07h4.49c2.37,0,4.09,1.6,4.09,3.81s-1.72,3.83-4.09,3.83h-4.49v-7.64Z"/><rect class="m" x="1015.59" y="269.82" width="4.11" height="24.07" rx="1.28" ry="1.28"/></g></g></svg>