<?xml version="1.0" encoding="UTF-8" standalone="no"?>
<svg
   xmlns:dc="http://purl.org/dc/elements/1.1/"
   xmlns:cc="http://creativecommons.org/ns#"
   xmlns:rdf="http://www.w3.org/1999/02/22-rdf-syntax-ns#"
   xmlns:svg="http://www.w3.org/2000/svg"
   xmlns="http://www.w3.org/2000/svg"
   xmlns:sodipodi="http://sodipodi.sourceforge.net/DTD/sodipodi-0.dtd"
   xmlns:inkscape="http://www.inkscape.org/namespaces/inkscape"
   id="a"
   viewBox="0 0 338 338"
   version="1.1"
   sodipodi:docname="logo-rect.svg"
   width="338"
   height="338"
   inkscape:version="0.92.5 (2060ec1f9f, 2020-04-08)">
  <metadata
     id="metadata103">
    <rdf:RDF>
      <cc:Work
         rdf:about="">
        <dc:format>image/svg+xml</dc:format>
        <dc:type
           rdf:resource="http://purl.org/dc/dcmitype/StillImage" />
        <dc:title></dc:title>
      </cc:Work>
    </rdf:RDF>
  </metadata>
  <sodipodi:namedview
     pagecolor="#ffffff"
     bordercolor="#666666"
     borderopacity="1"
     objecttolerance="10"
     gridtolerance="10"
     guidetolerance="10"
     inkscape:pageopacity="0"
     inkscape:pageshadow="2"
     inkscape:window-width="1920"
     inkscape:window-height="1022"
     id="namedview101"
     showgrid="false"
     fit-margin-top="0"
     fit-margin-left="0"
     fit-margin-right="0"
     fit-margin-bottom="0"
     inkscape:zoom="1.5748031"
     inkscape:cx="173.29085"
     inkscape:cy="144.94673"
     inkscape:window-x="0"
     inkscape:window-y="0"
     inkscape:window-maximized="1"
     inkscape:current-layer="a" />
  <defs
     id="defs25">
    <style
       id="style2">.h{fill:#3c2f9b;opacity:.15;}.i{fill:#5d51e6;}.j{fill:#4033a6;}.k{fill:#3b2f99;}.l{fill:#e6e6e6;}.m{fill:url(#d);}.n{fill:#b7b6bf;}</style>
    <linearGradient
       id="d"
       x1="427.81"
       y1="299.79001"
       x2="274.19"
       y2="33.720001"
       gradientUnits="userSpaceOnUse">
      <stop
         offset=".01"
         stop-color="#3b2f99"
         id="stop4" />
      <stop
         offset=".29"
         stop-color="#4d3dcc"
         id="stop6" />
      <stop
         offset=".31"
         stop-color="#4c47cd"
         id="stop8" />
      <stop
         offset=".39"
         stop-color="#4b74d3"
         id="stop10" />
      <stop
         offset=".48"
         stop-color="#4a9bd8"
         id="stop12" />
      <stop
         offset=".57"
         stop-color="#4abadc"
         id="stop14" />
      <stop
         offset=".67"
         stop-color="#49d3df"
         id="stop16" />
      <stop
         offset=".77"
         stop-color="#49e4e2"
         id="stop18" />
      <stop
         offset=".87"
         stop-color="#49eee3"
         id="stop20" />
      <stop
         offset="1"
         stop-color="#49f2e4"
         id="stop22" />
    </linearGradient>
  </defs>
  <g
     id="b"
     transform="translate(-182,2.24)">
    <path
       class="k"
       d="M 466.05,62.1 384.11,14.79 C 374.06,8.99 362.61,5.92 351,5.92 c -11.61,0 -23.06,3.07 -33.12,8.87 l -81.93,47.3 c -20.43,11.79 -33.12,33.77 -33.12,57.36 v 94.61 c 0,23.59 12.69,45.56 33.11,57.36 l 81.94,47.31 c 10.05,5.8 21.5,8.87 33.11,8.87 11.61,0 23.06,-3.07 33.11,-8.87 l 81.93,-47.3 c 20.43,-11.79 33.12,-33.77 33.12,-57.36 v -94.62 c 0,-23.59 -12.69,-45.56 -33.12,-57.35 z"
       id="path27"
       inkscape:connector-curvature="0"
       style="fill:#3b2f99" />
    <path
       class="i"
       d="m 455.97,109.91 c -4.13,0 -8,1.1 -11.36,3.01 -0.07,0.04 -75.61,43.62 -75.61,43.62 -11.13,6.43 -24.85,6.43 -35.98,0 0,0 -76.85,-44.28 -77.09,-44.38 -3,-1.43 -6.35,-2.26 -9.89,-2.26 -12.73,0 -23.04,10.32 -23.04,23.04 v 83.02 c 0,15.38 8.21,29.6 21.53,37.29 l 84.95,49.04 c 6.54,3.78 13.99,5.77 21.53,5.77 7.55,0 14.99,-2 21.53,-5.77 l 84.95,-49.04 c 13.32,-7.69 21.53,-21.91 21.53,-37.29 v -83.02 c 0,-12.73 -10.32,-23.04 -23.04,-23.04 z"
       id="path29"
       inkscape:connector-curvature="0"
       style="fill:#5d51e6" />
    <path
       class="j"
       d="m 457.45,228.21 c 9.57,5.52 21.53,-1.36 21.56,-12.41 v 0 -98.09 c 0,-15.38 -8.21,-29.6 -21.53,-37.29 L 372.53,31.38 C 365.99,27.6 358.54,25.61 351,25.61 c -7.54,0 -14.99,2 -21.53,5.77 l -84.95,49.04 c -13.32,7.69 -21.53,21.91 -21.53,37.29 v 98.09 0 c 0.03,11.05 11.99,17.93 21.56,12.41 L 333,177.14 c 11.13,-6.43 24.85,-6.43 35.98,0 z"
       id="path31"
       inkscape:connector-curvature="0"
       style="fill:#4033a6" />
    <circle
       id="c"
       class="l"
       cx="351"
       cy="166.39"
       r="56.330002"
       style="fill:#e6e6e6" />
    <path
       class="m"
       d="M 470.28,58.25 385.33,9.2 C 374.91,3.18 363.03,0 351,0 338.97,0 327.09,3.18 316.67,9.2 l -84.95,49.04 c -21.18,12.23 -34.33,35.01 -34.33,59.47 v 98.09 c 0,24.45 13.15,47.24 34.33,59.47 l 84.95,49.05 c 10.42,6.02 22.29,9.2 34.33,9.2 12.04,0 23.91,-3.18 34.33,-9.2 l 84.95,-49.04 c 21.18,-12.23 34.33,-35.01 34.33,-59.47 v -98.1 c 0,-24.45 -13.16,-47.24 -34.33,-59.46 z m 8.73,157.56 c 0,15.38 -8.21,29.6 -21.53,37.29 l -84.95,49.04 c -6.54,3.78 -13.99,5.77 -21.53,5.77 -7.54,0 -14.99,-2 -21.53,-5.77 L 244.52,253.1 c -13.32,-7.69 -21.53,-21.91 -21.53,-37.29 v -83.02 c 0,-12.73 10.32,-23.04 23.04,-23.04 3.55,0 6.89,0.82 9.89,2.26 0.24,0.1 77.09,44.38 77.09,44.38 11.13,6.43 24.85,6.43 35.98,0 0,0 75.54,-43.58 75.61,-43.62 3.35,-1.91 7.22,-3.01 11.36,-3.01 12.73,0 23.04,10.32 23.04,23.04 v 83.02 z"
       id="path34"
       style="fill:url(#d)"
       inkscape:connector-curvature="0" />
    <path
       class="h"
       d="m 392.56,192.88 c -5.16,5.67 -12.28,10.39 -21.12,13.47 -6.57,2.29 -13.53,3.36 -20.44,3.34 -6.91,0.02 -13.87,-1.05 -20.44,-3.34 -8.84,-3.08 -15.96,-7.8 -21.12,-13.47 -2.6,-2.85 -7.73,1.08 -5.73,4.12 6.9,10.51 21.48,25.37 47.29,25.71 25.81,-0.34 40.39,-15.2 47.29,-25.71 2,-3.04 -3.13,-6.97 -5.73,-4.12 z"
       id="path36"
       inkscape:connector-curvature="0"
       style="opacity:0.15;fill:#3c2f9b" />
  </g>
</svg>
