<?xml version="1.0" encoding="UTF-8" standalone="no"?>
<svg
   id="a"
   viewBox="0 0 335.00001 334.99999"
   version="1.1"
   sodipodi:docname="api2app-logo-rect.svg"
   width="335"
   height="335"
   inkscape:version="1.1.2 (0a00cf5339, 2022-02-04)"
   xmlns:inkscape="http://www.inkscape.org/namespaces/inkscape"
   xmlns:sodipodi="http://sodipodi.sourceforge.net/DTD/sodipodi-0.dtd"
   xmlns="http://www.w3.org/2000/svg"
   xmlns:svg="http://www.w3.org/2000/svg">
  <sodipodi:namedview
     id="namedview101"
     pagecolor="#ffffff"
     bordercolor="#666666"
     borderopacity="1.0"
     inkscape:pageshadow="2"
     inkscape:pageopacity="0.0"
     inkscape:pagecheckerboard="0"
     showgrid="false"
     fit-margin-top="0"
     fit-margin-left="0"
     fit-margin-right="0"
     fit-margin-bottom="0"
     inkscape:snap-global="false"
     inkscape:zoom="1.1881701"
     inkscape:cx="559.68417"
     inkscape:cy="166.64281"
     inkscape:window-width="1920"
     inkscape:window-height="1022"
     inkscape:window-x="1600"
     inkscape:window-y="0"
     inkscape:window-maximized="1"
     inkscape:current-layer="a"
     width="310px" />
  <defs
     id="defs25">
    <style
       id="style2">.h{fill:#362b8c;}.i{fill:#e6e6e6;}.j{fill:url(#d);}.k{fill:#4e41d9;}.l{fill:#4336b2;}</style>
    <linearGradient
       id="d"
       x1="230.42"
       y1="299.79001"
       x2="76.809998"
       y2="33.720001"
       gradientUnits="userSpaceOnUse">
      <stop
         offset=".01"
         stop-color="#362b8c"
         id="stop4" />
      <stop
         offset=".29"
         stop-color="#4336b2"
         id="stop6" />
      <stop
         offset=".3"
         stop-color="#433ab3"
         id="stop8" />
      <stop
         offset=".39"
         stop-color="#4367bc"
         id="stop10" />
      <stop
         offset=".47"
         stop-color="#448ec5"
         id="stop12" />
      <stop
         offset=".57"
         stop-color="#44adcb"
         id="stop14" />
      <stop
         offset=".66"
         stop-color="#44c6d1"
         id="stop16" />
      <stop
         offset=".76"
         stop-color="#44d7d5"
         id="stop18" />
      <stop
         offset=".87"
         stop-color="#44e1d7"
         id="stop20" />
      <stop
         offset="1"
         stop-color="#45e5d8"
         id="stop22" />
    </linearGradient>
  </defs>
  <g
     id="b"
     transform="translate(13.89,0.74)">
    <path
       class="k"
       d="M 268.66,62.1 186.73,14.79 c -10.05,-5.8 -21.5,-8.87 -33.11,-8.87 -11.61,0 -23.06,3.07 -33.12,8.87 L 38.57,62.09 C 18.14,73.89 5.45,95.86 5.45,119.45 v 94.61 c 0,23.59 12.69,45.56 33.11,57.36 l 81.94,47.31 c 10.05,5.8 21.5,8.87 33.11,8.87 11.61,0 23.06,-3.07 33.11,-8.87 l 81.93,-47.3 c 20.43,-11.79 33.12,-33.77 33.12,-57.36 v -94.62 c 0,-23.59 -12.69,-45.56 -33.12,-57.35 z"
       id="path27" />
    <path
       class="l"
       d="m 258.58,109.91 c -4.13,0 -8,1.1 -11.36,3.01 -0.07,0.04 -75.61,43.62 -75.61,43.62 -11.13,6.43 -24.85,6.43 -35.98,0 0,0 -76.85,-44.28 -77.09,-44.38 -3,-1.43 -6.35,-2.26 -9.89,-2.26 -12.73,0 -23.04,10.32 -23.04,23.04 v 83.02 c 0,15.38 8.21,29.6 21.53,37.29 l 84.95,49.04 c 6.54,3.78 13.99,5.77 21.53,5.77 7.55,0 14.99,-2 21.53,-5.77 l 84.95,-49.04 c 13.32,-7.69 21.53,-21.91 21.53,-37.29 v -83.02 c 0,-12.73 -10.32,-23.04 -23.04,-23.04 z"
       id="path29" />
    <path
       class="h"
       d="m 260.06,228.21 c 9.57,5.52 21.53,-1.36 21.56,-12.41 v 0 -98.09 c 0,-15.38 -8.21,-29.6 -21.53,-37.29 L 175.15,31.37 c -6.54,-3.78 -13.99,-5.77 -21.53,-5.77 -7.54,0 -14.99,2 -21.53,5.77 L 47.13,80.42 C 33.81,88.11 25.6,102.33 25.6,117.71 v 98.09 0 c 0.03,11.05 11.99,17.93 21.56,12.41 l 88.45,-51.07 c 11.13,-6.43 24.85,-6.43 35.98,0 z"
       id="path31" />
    <circle
       id="c"
       class="i"
       cx="153.61"
       cy="166.39"
       r="56.330002" />
    <path
       class="j"
       d="M 272.9,58.25 187.95,9.2 C 177.52,3.18 165.65,0 153.61,0 141.57,0 129.7,3.18 119.28,9.2 L 34.33,58.24 C 13.15,70.47 0,93.26 0,117.71 v 98.09 c 0,24.45 13.15,47.24 34.33,59.47 l 84.95,49.05 c 10.42,6.02 22.29,9.2 34.33,9.2 12.04,0 23.91,-3.18 34.33,-9.2 l 84.95,-49.04 c 21.18,-12.23 34.33,-35.01 34.33,-59.47 v -98.1 c 0,-24.45 -13.16,-47.24 -34.33,-59.46 z m 8.73,157.56 c 0,15.38 -8.21,29.6 -21.53,37.29 l -84.95,49.04 c -6.54,3.78 -13.99,5.77 -21.53,5.77 -7.54,0 -14.99,-2 -21.53,-5.77 L 47.14,253.1 C 33.82,245.41 25.61,231.19 25.61,215.81 v -83.02 c 0,-12.73 10.32,-23.04 23.04,-23.04 3.55,0 6.89,0.82 9.89,2.26 0.24,0.1 77.09,44.38 77.09,44.38 11.13,6.43 24.85,6.43 35.98,0 0,0 75.54,-43.58 75.61,-43.62 3.35,-1.91 7.22,-3.01 11.36,-3.01 12.73,0 23.04,10.32 23.04,23.04 v 83.02 z"
       id="path34"
       style="fill:url(#d)" />
  </g>
</svg>
