<?xml version="1.0" encoding="UTF-8" standalone="no"?>
<svg
   xmlns:dc="http://purl.org/dc/elements/1.1/"
   xmlns:cc="http://creativecommons.org/ns#"
   xmlns:rdf="http://www.w3.org/1999/02/22-rdf-syntax-ns#"
   xmlns:svg="http://www.w3.org/2000/svg"
   xmlns="http://www.w3.org/2000/svg"
   xmlns:sodipodi="http://sodipodi.sourceforge.net/DTD/sodipodi-0.dtd"
   xmlns:inkscape="http://www.inkscape.org/namespaces/inkscape"
   width="415"
   height="110"
   viewBox="0 0 415 110"
   version="1.1"
   id="svg8"
   sodipodi:docname="api2app-logo.svg"
   inkscape:version="0.92.5 (2060ec1f9f, 2020-04-08)"
   style="fill:none">
  <metadata
     id="metadata14">
    <rdf:RDF>
      <cc:Work
         rdf:about="">
        <dc:format>image/svg+xml</dc:format>
        <dc:type
           rdf:resource="http://purl.org/dc/dcmitype/StillImage" />
        <dc:title></dc:title>
      </cc:Work>
    </rdf:RDF>
  </metadata>
  <defs
     id="defs12" />
  <sodipodi:namedview
     pagecolor="#ffffff"
     bordercolor="#666666"
     borderopacity="1"
     objecttolerance="10"
     gridtolerance="10"
     guidetolerance="10"
     inkscape:pageopacity="0"
     inkscape:pageshadow="2"
     inkscape:window-width="1920"
     inkscape:window-height="1022"
     id="namedview10"
     showgrid="false"
     inkscape:zoom="1.0825688"
     inkscape:cx="167.33035"
     inkscape:cy="-32.81864"
     inkscape:window-x="0"
     inkscape:window-y="0"
     inkscape:window-maximized="1"
     inkscape:current-layer="svg8" />
  <path
     style="fill:#0073c8;fill-opacity:1;stroke-width:0.88267982"
     d="M 0,1 V 5 110 H 109 V 1 Z m 8,8 h 93 v 93 H 58 V 79.820312 A 24.32445,24.32445 0 0 0 78.185547,56.130859 24.32445,24.32445 0 0 0 54.130859,31.539062 24.32445,24.32445 0 0 0 29.539062,55.591797 24.32445,24.32445 0 0 0 50,79.847656 V 102 H 8 Z"
     id="circle2"
     inkscape:connector-curvature="0" />
  <g
     style="fill:#0073c8;fill-opacity:1"
     id="g844"
     transform="translate(130.81531,15.489681)">
    <path
       id="path833"
       d="M 0.592,74 16.24,1.99999 h 7.68 L 39.52,74 H 32.08 L 29.008,59.6 H 11.104 L 8.032,74 Z M 12.448,52.4 h 15.216 l -8.16,-40.08 h 1.152 z M 48.9723,91.28 V 21.92 h 6.96 v 6.768 l -1.152,-1.584 c 1.152,-1.984 2.704,-3.536 4.656,-4.656 1.984,-1.152 4.352,-1.728 7.104,-1.728 2.848,0 5.408,0.64 7.68,1.92 2.304,1.28 4.128,3.168 5.472,5.664 1.344,2.464 2.016,5.488 2.016,9.072 v 21.072 c 0,3.616 -0.672,6.672 -2.016,9.168 -1.344,2.496 -3.168,4.384 -5.472,5.664 -2.272,1.248 -4.832,1.872 -7.68,1.872 -2.752,0 -5.12,-0.56 -7.104,-1.68 -1.952,-1.12 -3.504,-2.688 -4.656,-4.704 l 1.152,-1.536 V 91.28 Z m 16.272,-23.088 c 2.976,0 5.296,-0.896 6.96,-2.688 1.696,-1.792 2.544,-4.144 2.544,-7.056 V 37.376 c 0,-2.912 -0.848,-5.248 -2.544,-7.008 -1.664,-1.792 -3.968,-2.688 -6.912,-2.688 -2.976,0 -5.28,0.896 -6.912,2.688 -1.632,1.76 -2.448,4.096 -2.448,7.008 v 21.12 c 0,2.912 0.816,5.264 2.448,7.056 1.632,1.76 3.92,2.64 6.864,2.64 z M 93.9723,74 V 21.92 h 6.9597 V 74 Z m 0,-57.888 V 4.88 h 6.9597 V 16.112 Z M 112.005,74 v -6.048 c 0,-3.584 0.64,-6.8 1.92,-9.648 1.312,-2.88 2.992,-5.504 5.04,-7.872 2.048,-2.4 4.208,-4.624 6.48,-6.672 2.272,-2.08 4.432,-4.112 6.48,-6.096 2.048,-1.984 3.712,-4.016 4.992,-6.096 1.312,-2.08 1.968,-4.32 1.968,-6.72 v -6.624 c 0,-3.168 -0.896,-5.712 -2.688,-7.632 -1.792,-1.952 -4.176,-2.928 -7.152,-2.928 -2.976,0 -5.36,0.976 -7.152,2.928 -1.792,1.92 -2.688,4.464 -2.688,7.632 v 2.4 h -7.2 v -2.4 c 0,-5.344 1.552,-9.632 4.656,-12.864 3.136,-3.264 7.264,-4.896003 12.384,-4.896003 5.152,0 9.28,1.632003 12.384,4.896003 3.104,3.264 4.656,7.552 4.656,12.864 v 6.624 c 0,2.816 -0.64,5.456 -1.92,7.92 -1.28,2.432 -2.928,4.736 -4.944,6.912 -2.016,2.176 -4.16,4.304 -6.432,6.384 -2.24,2.048 -4.368,4.128 -6.384,6.24 -2.016,2.08 -3.664,4.24 -4.944,6.48 -1.28,2.208 -1.92,4.592 -1.92,7.152 v 4.128 L 116.277,66.8 h 29.808 V 74 Z m 41.212,0 15.648,-72.00001 h 7.68 L 192.145,74 h -7.44 L 181.633,59.6 H 163.729 L 160.657,74 Z m 11.856,-21.6 h 15.216 l -8.16,-40.08 h 1.152 z m 36.524,38.88 V 21.92 h 6.96 v 6.768 l -1.152,-1.584 c 1.152,-1.984 2.704,-3.536 4.656,-4.656 1.984,-1.152 4.352,-1.728 7.104,-1.728 2.848,0 5.408,0.64 7.68,1.92 2.304,1.28 4.128,3.168 5.472,5.664 1.344,2.464 2.016,5.488 2.016,9.072 v 21.072 c 0,3.616 -0.672,6.672 -2.016,9.168 -1.344,2.496 -3.168,4.384 -5.472,5.664 -2.272,1.248 -4.832,1.872 -7.68,1.872 -2.752,0 -5.12,-0.56 -7.104,-1.68 -1.952,-1.12 -3.504,-2.688 -4.656,-4.704 l 1.152,-1.536 V 91.28 Z m 16.272,-23.088 c 2.976,0 5.296,-0.896 6.96,-2.688 1.696,-1.792 2.544,-4.144 2.544,-7.056 V 37.376 c 0,-2.912 -0.848,-5.248 -2.544,-7.008 -1.664,-1.792 -3.968,-2.688 -6.912,-2.688 -2.976,0 -5.28,0.896 -6.912,2.688 -1.632,1.76 -2.448,4.096 -2.448,7.008 v 21.12 c 0,2.912 0.816,5.264 2.448,7.056 1.632,1.76 3.92,2.64 6.864,2.64 z M 246.597,91.28 V 21.92 h 6.96 v 6.768 l -1.152,-1.584 c 1.152,-1.984 2.704,-3.536 4.656,-4.656 1.984,-1.152 4.352,-1.728 7.104,-1.728 2.848,0 5.408,0.64 7.68,1.92 2.304,1.28 4.128,3.168 5.472,5.664 1.344,2.464 2.016,5.488 2.016,9.072 v 21.072 c 0,3.616 -0.672,6.672 -2.016,9.168 -1.344,2.496 -3.168,4.384 -5.472,5.664 -2.272,1.248 -4.832,1.872 -7.68,1.872 -2.752,0 -5.12,-0.56 -7.104,-1.68 -1.952,-1.12 -3.504,-2.688 -4.656,-4.704 l 1.152,-1.536 V 91.28 Z m 16.272,-23.088 c 2.976,0 5.296,-0.896 6.96,-2.688 1.696,-1.792 2.544,-4.144 2.544,-7.056 V 37.376 c 0,-2.912 -0.848,-5.248 -2.544,-7.008 -1.664,-1.792 -3.968,-2.688 -6.912,-2.688 -2.976,0 -5.28,0.896 -6.912,2.688 -1.632,1.76 -2.448,4.096 -2.448,7.008 v 21.12 c 0,2.912 0.816,5.264 2.448,7.056 1.632,1.76 3.92,2.64 6.864,2.64 z"
       inkscape:connector-curvature="0"
       style="fill:#0073c8;fill-opacity:1" />
  </g>
</svg>
