<svg width="32" height="32" viewBox="0 0 32 32" fill="none" xmlns="http://www.w3.org/2000/svg">
<mask id="mask0_531_12284" style="mask-type:luminance" maskUnits="userSpaceOnUse" x="0" y="0" width="32" height="32">
<path d="M32 0H0V32H32V0Z" fill="white"/>
</mask>
<g mask="url(#mask0_531_12284)">
<path d="M0 15.36C0 8.11923 0 4.49885 2.24942 2.24942C4.49885 0 8.11923 0 15.36 0H16.64C23.8808 0 27.5012 0 29.7506 2.24942C32 4.49885 32 8.11923 32 15.36V16.64C32 23.8808 32 27.5012 29.7506 29.7506C27.5012 32 23.8808 32 16.64 32H15.36C8.11923 32 4.49885 32 2.24942 29.7506C0 27.5012 0 23.8808 0 16.64V15.36Z" fill="#0077FF"/>
<path d="M17.0266 23.0534C9.73321 23.0534 5.57325 18.0534 5.3999 9.73344H9.05325C9.17325 15.8401 11.8665 18.4268 13.9998 18.9601V9.73344H17.44V15.0001C19.5466 14.7734 21.7597 12.3734 22.5064 9.73344H25.9465C25.3731 12.9868 22.9731 15.3868 21.2665 16.3734C22.9731 17.1734 25.7066 19.2668 26.7466 23.0534H22.9598C22.1465 20.5201 20.12 18.5601 17.44 18.2934V23.0534H17.0266Z" fill="white"/>
</g>
</svg>
