<?xml version="1.0" encoding="UTF-8" standalone="no"?>
<svg
   xmlns:dc="http://purl.org/dc/elements/1.1/"
   xmlns:cc="http://creativecommons.org/ns#"
   xmlns:rdf="http://www.w3.org/1999/02/22-rdf-syntax-ns#"
   xmlns:svg="http://www.w3.org/2000/svg"
   xmlns="http://www.w3.org/2000/svg"
   xmlns:sodipodi="http://sodipodi.sourceforge.net/DTD/sodipodi-0.dtd"
   xmlns:inkscape="http://www.inkscape.org/namespaces/inkscape"
   id="a"
   viewBox="0 0 1120.21 337.99999"
   version="1.1"
   sodipodi:docname="api2app-logo-dark.svg"
   width="1120.21"
   height="338"
   inkscape:version="0.92.5 (2060ec1f9f, 2020-04-08)">
  <metadata
     id="metadata103">
    <rdf:RDF>
      <cc:Work
         rdf:about="">
        <dc:format>image/svg+xml</dc:format>
        <dc:type
           rdf:resource="http://purl.org/dc/dcmitype/StillImage" />
        <dc:title></dc:title>
      </cc:Work>
    </rdf:RDF>
  </metadata>
  <sodipodi:namedview
     pagecolor="#ffffff"
     bordercolor="#666666"
     borderopacity="1"
     objecttolerance="10"
     gridtolerance="10"
     guidetolerance="10"
     inkscape:pageopacity="0"
     inkscape:pageshadow="2"
     inkscape:window-width="1920"
     inkscape:window-height="1022"
     id="namedview101"
     showgrid="false"
     inkscape:zoom="0.86180109"
     inkscape:cx="495.0223"
     inkscape:cy="145.0794"
     inkscape:window-x="0"
     inkscape:window-y="0"
     inkscape:window-maximized="1"
     inkscape:current-layer="a" />
  <defs
     id="defs25">
    <style
       id="style2">.h{fill:#3c2f9b;opacity:.15;}.i{fill:#5d51e6;}.j{fill:#4033a6;}.k{fill:#3b2f99;}.l{fill:#e6e6e6;}.m{fill:url(#d);}.n{fill:#b7b6bf;}.o{fill:#4e41d9;}</style>
    <linearGradient
       id="d"
       x1="230.42"
       y1="299.79001"
       x2="76.809998"
       y2="33.720001"
       gradientUnits="userSpaceOnUse">
      <stop
         offset=".01"
         stop-color="#3b2f99"
         id="stop4" />
      <stop
         offset=".29"
         stop-color="#4d3dcc"
         id="stop6" />
      <stop
         offset=".31"
         stop-color="#4c47cd"
         id="stop8" />
      <stop
         offset=".39"
         stop-color="#4b74d3"
         id="stop10" />
      <stop
         offset=".48"
         stop-color="#4a9bd8"
         id="stop12" />
      <stop
         offset=".57"
         stop-color="#4abadc"
         id="stop14" />
      <stop
         offset=".67"
         stop-color="#49d3df"
         id="stop16" />
      <stop
         offset=".77"
         stop-color="#49e4e2"
         id="stop18" />
      <stop
         offset=".87"
         stop-color="#49eee3"
         id="stop20" />
      <stop
         offset="1"
         stop-color="#49f2e4"
         id="stop22" />
    </linearGradient>
  </defs>
  <g
     id="b"
     transform="translate(4,2.4899902)">
    <path
       class="o"
       d="M 268.66,62.1 186.73,14.79 c -10.05,-5.8 -21.5,-8.87 -33.11,-8.87 -11.61,0 -23.06,3.07 -33.12,8.87 L 38.57,62.09 C 18.14,73.89 5.45,95.86 5.45,119.45 v 94.61 c 0,23.59 12.69,45.56 33.11,57.36 l 81.94,47.31 c 10.05,5.8 21.5,8.87 33.11,8.87 11.61,0 23.06,-3.07 33.11,-8.87 l 81.93,-47.3 c 20.43,-11.79 33.12,-33.77 33.12,-57.36 v -94.62 c 0,-23.59 -12.69,-45.56 -33.12,-57.35 z"
       id="path27"
       inkscape:connector-curvature="0"
       style="fill:#4e41d9" />
    <path
       class="i"
       d="m 258.58,109.91 c -4.13,0 -8,1.1 -11.36,3.01 -0.07,0.04 -75.61,43.62 -75.61,43.62 -11.13,6.43 -24.85,6.43 -35.98,0 0,0 -76.85,-44.28 -77.09,-44.38 -3,-1.43 -6.35,-2.26 -9.89,-2.26 -12.73,0 -23.04,10.32 -23.04,23.04 v 83.02 c 0,15.38 8.21,29.6 21.53,37.29 l 84.95,49.04 c 6.54,3.78 13.99,5.77 21.53,5.77 7.55,0 14.99,-2 21.53,-5.77 l 84.95,-49.04 c 13.32,-7.69 21.53,-21.91 21.53,-37.29 v -83.02 c 0,-12.73 -10.32,-23.04 -23.04,-23.04 z"
       id="path29"
       inkscape:connector-curvature="0"
       style="fill:#5d51e6" />
    <path
       class="j"
       d="m 260.06,228.21 c 9.57,5.52 21.53,-1.36 21.56,-12.41 v 0 -98.09 c 0,-15.38 -8.21,-29.6 -21.53,-37.29 L 175.15,31.37 c -6.54,-3.78 -13.99,-5.77 -21.53,-5.77 -7.54,0 -14.99,2 -21.53,5.77 L 47.13,80.42 C 33.81,88.11 25.6,102.33 25.6,117.71 v 98.09 0 c 0.03,11.05 11.99,17.93 21.56,12.41 l 88.45,-51.07 c 11.13,-6.43 24.85,-6.43 35.98,0 z"
       id="path31"
       inkscape:connector-curvature="0"
       style="fill:#4033a6" />
    <circle
       id="c"
       class="l"
       cx="153.61"
       cy="166.39"
       r="56.330002"
       style="fill:#e6e6e6" />
    <path
       class="m"
       d="M 272.9,58.25 187.95,9.2 C 177.52,3.18 165.65,0 153.61,0 141.57,0 129.7,3.18 119.28,9.2 L 34.33,58.24 C 13.15,70.47 0,93.26 0,117.71 v 98.09 c 0,24.45 13.15,47.24 34.33,59.47 l 84.95,49.05 c 10.42,6.02 22.29,9.2 34.33,9.2 12.04,0 23.91,-3.18 34.33,-9.2 l 84.95,-49.04 c 21.18,-12.23 34.33,-35.01 34.33,-59.47 v -98.1 c 0,-24.45 -13.16,-47.24 -34.33,-59.46 z m 8.73,157.56 c 0,15.38 -8.21,29.6 -21.53,37.29 l -84.95,49.04 c -6.54,3.78 -13.99,5.77 -21.53,5.77 -7.54,0 -14.99,-2 -21.53,-5.77 L 47.14,253.1 C 33.82,245.41 25.61,231.19 25.61,215.81 v -83.02 c 0,-12.73 10.32,-23.04 23.04,-23.04 3.55,0 6.89,0.82 9.89,2.26 0.24,0.1 77.09,44.38 77.09,44.38 11.13,6.43 24.85,6.43 35.98,0 0,0 75.54,-43.58 75.61,-43.62 3.35,-1.91 7.22,-3.01 11.36,-3.01 12.73,0 23.04,10.32 23.04,23.04 v 83.02 z"
       id="path34"
       style="fill:url(#d)"
       inkscape:connector-curvature="0" />
    <path
       class="h"
       d="m 195.18,192.88 c -5.16,5.67 -12.28,10.39 -21.12,13.47 -6.57,2.29 -13.53,3.36 -20.44,3.34 -6.91,0.02 -13.87,-1.05 -20.44,-3.34 -8.84,-3.08 -15.96,-7.8 -21.12,-13.47 -2.6,-2.85 -7.73,1.08 -5.73,4.12 6.9,10.51 21.48,25.37 47.29,25.71 25.81,-0.34 40.39,-15.2 47.29,-25.71 2,-3.04 -3.13,-6.97 -5.73,-4.12 z"
       id="path36"
       inkscape:connector-curvature="0"
       style="opacity:0.15;fill:#3c2f9b" />
  </g>
  <g
     id="f"
     transform="translate(-4,10.48999)">
    <path
       style="fill:#3b2f99"
       inkscape:connector-curvature="0"
       id="path39"
       d="m 510.52,118.26 h -5.98 c -3.97,0 -7.27,3.02 -7.65,6.93 -7.95,-5.55 -17.67,-8.56 -28.31,-8.56 -27.83,0 -48.81,21.25 -48.81,49.43 0,28.18 20.98,49.43 48.81,49.43 10.55,0 20.2,-2.96 28.12,-8.44 0.43,3.86 3.7,6.82 7.64,6.82 h 6.18 c 4.24,0 7.69,-3.44 7.69,-7.69 v -80.23 c 0,-4.25 -3.44,-7.69 -7.69,-7.69 z m -41.46,74.78 v 0 c -15.35,0 -26.5,-11.34 -26.5,-26.98 0,-15.64 11.39,-26.98 26.5,-26.98 15.11,0 26.35,11.1 26.35,26.98 0,15.88 -10.84,26.98 -26.35,26.98 z"
       class="k" />
    <path
       style="fill:#3b2f99"
       inkscape:connector-curvature="0"
       id="path41"
       d="m 580.17,116.64 v 0 c -10.62,0 -20.58,3.24 -28.69,9.06 l -0.04,-0.44 c -0.35,-3.97 -3.68,-7.01 -7.66,-7.01 h -5.29 c -4.24,0 -7.69,3.44 -7.69,7.69 v 108.67 c 0,4.25 3.44,7.69 7.69,7.69 h 7.28 c 4.24,0 7.69,-3.44 7.69,-7.69 v -26.87 c 7.74,4.99 16.97,7.75 26.71,7.75 27.7,0 48.59,-21.25 48.59,-49.43 0,-28.18 -20.89,-49.43 -48.59,-49.43 z m -0.48,22.45 c 15.52,0 26.35,11.1 26.35,26.98 0,15.88 -10.84,26.98 -26.35,26.98 -15.51,0 -26.5,-11.6 -26.5,-26.98 0,-15.38 11.15,-26.98 26.5,-26.98 z"
       class="k" />
    <rect
       style="fill:#3b2f99"
       id="rect43"
       ry="7.6900001"
       rx="7.6900001"
       height="95.610001"
       width="22.65"
       y="118.26"
       x="638.40002"
       class="k" />
    <path
       style="fill:#3b2f99"
       inkscape:connector-curvature="0"
       id="path45"
       d="m 894.17,118.26 h -5.97 c -3.97,0 -7.27,3.02 -7.65,6.93 -7.95,-5.55 -17.67,-8.56 -28.31,-8.56 -27.83,0 -48.81,21.25 -48.81,49.43 0,28.18 20.98,49.43 48.81,49.43 10.55,0 20.2,-2.96 28.12,-8.44 0.43,3.86 3.7,6.82 7.64,6.82 h 6.18 c 4.24,0 7.69,-3.44 7.69,-7.69 v -80.23 c 0,-4.25 -3.44,-7.69 -7.69,-7.69 z m -41.45,74.78 v 0 c -15.36,0 -26.5,-11.34 -26.5,-26.98 0,-15.64 11.39,-26.98 26.5,-26.98 15.11,0 26.35,11.1 26.35,26.98 0,15.88 -10.84,26.98 -26.35,26.98 z"
       class="k" />
    <path
       style="fill:#3b2f99"
       inkscape:connector-curvature="0"
       id="path47"
       d="m 963.82,116.64 v 0 c -10.62,0 -20.58,3.24 -28.69,9.06 l -0.04,-0.44 c -0.35,-3.97 -3.68,-7.01 -7.66,-7.01 h -5.29 c -4.24,0 -7.69,3.44 -7.69,7.69 v 108.67 c 0,4.25 3.44,7.69 7.69,7.69 h 7.28 c 4.24,0 7.69,-3.44 7.69,-7.69 v -26.87 c 7.74,4.99 16.97,7.75 26.71,7.75 27.7,0 48.59,-21.25 48.59,-49.43 0,-28.18 -20.89,-49.43 -48.59,-49.43 z m -0.48,22.45 c 15.52,0 26.35,11.1 26.35,26.98 0,15.88 -10.84,26.98 -26.35,26.98 -15.51,0 -26.5,-11.6 -26.5,-26.98 0,-15.38 11.15,-26.98 26.5,-26.98 z"
       class="k" />
    <path
       style="fill:#3b2f99"
       inkscape:connector-curvature="0"
       id="path49"
       d="m 1071.62,116.64 v 0 c -10.62,0 -20.58,3.24 -28.69,9.06 l -0.04,-0.44 c -0.35,-3.97 -3.68,-7.01 -7.66,-7.01 h -5.29 c -4.25,0 -7.69,3.44 -7.69,7.69 v 108.67 c 0,4.25 3.44,7.69 7.69,7.69 h 7.28 c 4.25,0 7.69,-3.44 7.69,-7.69 v -26.87 c 7.74,4.99 16.97,7.75 26.71,7.75 27.7,0 48.59,-21.25 48.59,-49.43 0,-28.18 -20.89,-49.43 -48.59,-49.43 z m -0.48,22.45 c 15.52,0 26.35,11.1 26.35,26.98 0,15.88 -10.84,26.98 -26.35,26.98 -15.51,0 -26.5,-11.6 -26.5,-26.98 0,-15.38 11.15,-26.98 26.5,-26.98 z"
       class="k" />
    <path
       style="fill:#3b2f99"
       inkscape:connector-curvature="0"
       id="path51"
       d="m 661.05,96.77 v -5.08 c 0,-2.48 -1.32,-4.76 -3.46,-6 l -4.4,-2.54 c -2.14,-1.24 -4.79,-1.24 -6.93,0 l -4.4,2.54 c -2.14,1.24 -3.46,3.53 -3.46,6 v 5.08 c 0,2.48 1.32,4.76 3.46,6 l 4.4,2.54 c 2.14,1.24 4.79,1.24 6.93,0 l 4.4,-2.54 c 2.14,-1.24 3.46,-3.53 3.46,-6 z"
       class="k" />
    <path
       style="fill:#3b2f99"
       inkscape:connector-curvature="0"
       id="path53"
       d="m 768.96,191.7 h -33.18 c 29.6,-31.18 36.02,-42.56 36.02,-58.96 0,-20.09 -15.15,-34.67 -36.01,-34.67 -20.86,0 -36.68,14.61 -36.68,34.74 v 2.62 c 0,4.25 3.44,7.69 7.69,7.69 h 7.07 c 4.24,0 7.69,-3.44 7.69,-7.69 v -2.62 c 0,-7.64 5.59,-12.57 14.24,-12.57 8.65,0 13.5,4.67 13.5,12.5 0,10.6 -3.92,17.98 -50.5,64.99 -1.43,1.44 -2.23,3.38 -2.23,5.41 v 3.04 c 0,4.25 3.44,7.69 7.69,7.69 h 64.72 c 4.24,0 7.69,-3.44 7.69,-7.69 v -6.8 c 0,-4.25 -3.44,-7.69 -7.69,-7.69 z"
       class="k" />
  </g>
</svg>
